<svg width="31" height="31" viewBox="0 0 31 31" fill="none" xmlns="http://www.w3.org/2000/svg">
<path d="M15.5 2.56335C8.35533 2.56335 2.56329 8.35539 2.56329 15.5C2.56329 22.6447 8.35533 28.4367 15.5 28.4367C22.6446 28.4367 28.4367 22.6447 28.4367 15.5C28.4367 8.35539 22.6446 2.56335 15.5 2.56335Z" fill="#FD628B"/>
<path d="M3.2901 15.7422C3.1569 15.7422 3.04791 15.6332 3.04791 15.5C3.04791 15.3668 3.1569 15.2579 3.2901 15.2579C3.4233 15.2579 3.53229 15.3668 3.53229 15.5C3.53229 15.6332 3.4233 15.7422 3.2901 15.7422ZM3.32764 14.7747C3.32158 14.7747 3.31553 14.7747 3.30826 14.7747C3.24408 14.7686 3.18596 14.7396 3.14358 14.6899C3.10119 14.6403 3.08182 14.5785 3.08666 14.5143C3.33127 11.4119 4.72627 8.52868 7.01494 6.39379C9.31451 4.24922 12.3104 3.06129 15.4491 3.04797H15.5C15.6332 3.04797 15.7422 3.15696 15.7422 3.29016C15.7422 3.42336 15.6332 3.53235 15.5 3.53235C15.4842 3.53235 15.4673 3.53235 15.4515 3.53235C9.27334 3.55657 4.0542 8.39668 3.56983 14.5519C3.55893 14.6766 3.45358 14.7747 3.32764 14.7747Z" fill="#F68BA7"/>
<path d="M15.5 26.2393C21.4311 26.2393 26.2392 21.4312 26.2392 15.5001C26.2392 9.56897 21.4311 4.76086 15.5 4.76086C9.56891 4.76086 4.7608 9.56897 4.7608 15.5001C4.7608 21.4312 9.56891 26.2393 15.5 26.2393Z" fill="#DD1D50"/>
<path d="M18.914 23.7172C23.4539 21.8355 25.6087 16.6297 23.7269 12.0898C21.8451 7.54995 16.6394 5.39515 12.0995 7.27693C7.55962 9.15872 5.40482 14.3645 7.28661 18.9044C9.16839 23.4442 14.3742 25.599 18.914 23.7172Z" fill="white"/>
<path d="M21.1561 8.63293C22.4239 10.1703 23.1854 12.1408 23.1854 14.2891C23.1854 19.2024 19.2024 23.1854 14.2892 23.1854C12.1408 23.1854 10.1704 22.4239 8.633 21.1561C10.2647 23.1349 12.735 24.3963 15.5001 24.3963C20.4134 24.3963 24.3964 20.4133 24.3964 15.5C24.3963 12.735 23.1348 10.2647 21.1561 8.63293Z" fill="#F1F2F2"/>
<path d="M21.4807 8.91394C22.916 10.4937 23.7909 12.5919 23.7909 14.8946C23.7909 19.8079 19.8079 23.7909 14.8946 23.7909C12.592 23.7909 10.4937 22.9161 8.91394 21.4807C10.5413 23.2718 12.8893 24.3964 15.5001 24.3964C20.4134 24.3964 24.3964 20.4134 24.3964 15.5001C24.3963 12.8894 23.2718 10.5414 21.4807 8.91394Z" fill="#E6E7E8"/>
<path d="M15.5 10.0952C15.1781 10.0952 14.9171 9.83421 14.9171 9.51222V8.20514C14.9171 7.88327 15.178 7.62219 15.5 7.62219C15.8219 7.62219 16.0829 7.88315 16.0829 8.20514V9.51222C16.0829 9.83421 15.8219 10.0952 15.5 10.0952Z" fill="#D1D3D4"/>
<path d="M15.5 23.3778C15.1781 23.3778 14.9171 23.1168 14.9171 22.7948V21.4877C14.9171 21.1659 15.178 20.9048 15.5 20.9048C15.8219 20.9048 16.0829 21.1657 16.0829 21.4877V22.7948C16.0829 23.1168 15.8219 23.3778 15.5 23.3778Z" fill="#D1D3D4"/>
<path d="M12.7508 10.8507C12.4721 11.0116 12.1156 10.9161 11.9546 10.6373L11.3011 9.50534C11.1402 9.22658 11.2356 8.87008 11.5145 8.70903C11.7932 8.54809 12.1497 8.64364 12.3107 8.92239L12.9642 10.0544C13.1251 10.3333 13.0296 10.6898 12.7508 10.8507Z" fill="#D1D3D4"/>
<path d="M19.3922 22.3539C19.1134 22.5148 18.7569 22.4194 18.596 22.1405L17.9425 21.0085C17.7815 20.7298 17.8769 20.3733 18.1558 20.2122C18.4346 20.0513 18.7911 20.1468 18.952 20.4256L19.6056 21.5576C19.7665 21.8364 19.6709 22.1929 19.3922 22.3539Z" fill="#D1D3D4"/>
<path d="M10.7477 12.8797C10.5867 13.1585 10.2302 13.254 9.95135 13.0931L8.81937 12.4395C8.54061 12.2786 8.44506 11.9221 8.606 11.6433C8.76693 11.3646 9.12343 11.269 9.40231 11.43L10.5343 12.0835C10.8131 12.2443 10.9086 12.6008 10.7477 12.8797Z" fill="#D1D3D4"/>
<path d="M22.2508 19.5209C22.0899 19.7997 21.7334 19.8952 21.4545 19.7343L20.3225 19.0808C20.0438 18.9198 19.9482 18.5633 20.1092 18.2846C20.2701 18.0058 20.6266 17.9103 20.9055 18.0712L22.0375 18.7248C22.3162 18.8857 22.4118 19.2422 22.2508 19.5209Z" fill="#D1D3D4"/>
<path d="M10.0274 15.6384C10.0274 15.9602 9.76646 16.2213 9.44447 16.2213H8.13751C7.81564 16.2213 7.55457 15.9604 7.55457 15.6384C7.55457 15.3165 7.81552 15.0554 8.13751 15.0554H9.4446C9.76646 15.0554 10.0274 15.3164 10.0274 15.6384Z" fill="#D1D3D4"/>
<path d="M23.3102 15.6384C23.3102 15.9602 23.0492 16.2213 22.7273 16.2213H21.4202C21.0983 16.2213 20.8372 15.9604 20.8372 15.6384C20.8372 15.3165 21.0982 15.0554 21.4202 15.0554H22.7273C23.0492 15.0554 23.3102 15.3164 23.3102 15.6384Z" fill="#D1D3D4"/>
<path d="M10.7831 18.3875C10.944 18.6662 10.8485 19.0227 10.5697 19.1837L9.43771 19.8372C9.15895 19.9981 8.80245 19.9027 8.6414 19.6238C8.48047 19.3451 8.57601 18.9886 8.85477 18.8277L9.98675 18.1741C10.2656 18.0132 10.6221 18.1087 10.7831 18.3875Z" fill="#D1D3D4"/>
<path d="M22.2862 11.7461C22.4472 12.0249 22.3516 12.3814 22.0729 12.5423L20.9409 13.1959C20.6621 13.3568 20.3056 13.2614 20.1446 12.9825C19.9836 12.7037 20.0792 12.3472 20.3579 12.1863L21.4899 11.5328C21.7688 11.3718 22.1253 11.4674 22.2862 11.7461Z" fill="#D1D3D4"/>
<path d="M12.812 20.3907C13.0907 20.5516 13.1863 20.9081 13.0253 21.187L12.3718 22.319C12.2108 22.5977 11.8543 22.6933 11.5756 22.5324C11.2968 22.3714 11.2013 22.0149 11.3622 21.736L12.0158 20.6041C12.1767 20.3252 12.5332 20.2298 12.812 20.3907Z" fill="#D1D3D4"/>
<path d="M19.4533 8.88752C19.7321 9.04845 19.8276 9.40495 19.6667 9.68383L19.0131 10.8158C18.8522 11.0946 18.4957 11.1901 18.2169 11.0292C17.9382 10.8683 17.8426 10.5117 18.0036 10.2329L18.6571 9.10089C18.8181 8.82201 19.1746 8.72659 19.4533 8.88752Z" fill="#D1D3D4"/>
<path d="M13.3472 18.1372C13.2233 18.1372 13.0993 18.0899 13.0047 17.9954C12.8155 17.8061 12.8155 17.4995 13.0047 17.3104L15.0678 15.2473L16.6757 9.5054C16.7478 9.24783 17.015 9.09767 17.2728 9.1696C17.5304 9.24178 17.6807 9.50903 17.6085 9.76672L15.9663 15.6308C15.9439 15.711 15.9013 15.7839 15.8425 15.8427L13.6897 17.9955C13.5952 18.0899 13.4711 18.1372 13.3472 18.1372Z" fill="#808285"/>
<path d="M15.5 16.6393C16.1292 16.6393 16.6392 16.1293 16.6392 15.5001C16.6392 14.8709 16.1292 14.3608 15.5 14.3608C14.8708 14.3608 14.3607 14.8709 14.3607 15.5001C14.3607 16.1293 14.8708 16.6393 15.5 16.6393Z" fill="#58595B"/>
<path d="M16.3055 14.6944C16.1984 14.5874 16.0753 14.5061 15.9439 14.4506C16.1191 14.8651 16.0379 15.3623 15.7 15.7001C15.3622 16.038 14.8649 16.1192 14.4504 15.944C14.506 16.0754 14.5873 16.1985 14.6943 16.3056C15.1392 16.7505 15.8606 16.7505 16.3055 16.3056C16.7504 15.8607 16.7505 15.1395 16.3055 14.6944Z" fill="#414042"/>
</svg>
